# xmcd
#
# Track frame offsets:
#	150
#	11823
#	23784
#	36509
#	48383
#	60448
#	78182
#	89990
#	102405
#	116298
#	126173
#	139914
#	149189
#	164518
#	177302
#	187499
#	201654
#	214842
#	224626
#	236066
#	249303
#	260553
#	274915
#	286232
#	300441
#	312677
#	327533
#	340646
#
# Disc length: 4751 seconds
#
# Revision: 0
# Processed by: cddbd v1.5.2PL0 Copyright (c) Steve Scherf et al.
# Submitted via: EasyCDDAExtractor 2010.6.0.0
#
DISCID=cb128d1c
DTITLE=Billy Edd Wheeler - A Big Bag Of Songs
DYEAR=1900
DGENRE=
TTITLE0=Coal Tattoo
TTITLE1=Blistered
TTITLE2=After Taxes
TTITLE3=Desert Pete
TTITLE4=Reverend Mr. Black
TTITLE5=Winter Sky
TTITLE6=Bachelor
TTITLE7=Jack And The Doctor's Daughter
TTITLE8=Jackson
TTITLE9=Waltz Of Miss Sarah Green
TTITLE10=Wild Cat's Kitten
TTITLE11=Tie My Rope Around A Tree
TTITLE12=Coming Of The Roads
TTITLE13=Bringing Mary Home
TTITLE14=Jake McCall
TTITLE15=Ode To The Little Brown Shack Out Back
TTITLE16=I Ain't The Worrying Kind
TTITLE17=I Ain't Buyin'
TTITLE18=High Flying Bird
TTITLE19=Edipunt Song
TTITLE20=They Can't Put It Back
TTITLE21=Bernard
TTITLE22=Big Put On
TTITLE23=Mississippi Magic
TTITLE24=Don't Hold Your Breath
TTITLE25=Gabriel's Horn
TTITLE26=Girl Who Loved The Man Who Robbed The Bank At Santa Fe (And Got Away)
TTITLE27=Soon As Buddy Gets Home
EXTD=
EXTT0=
EXTT1=
EXTT2=
EXTT3=
EXTT4=
EXTT5=
EXTT6=
EXTT7=
EXTT8=
EXTT9=
EXTT10=
EXTT11=
EXTT12=
EXTT13=
EXTT14=
EXTT15=
EXTT16=
EXTT17=
EXTT18=
EXTT19=
EXTT20=
EXTT21=
EXTT22=
EXTT23=
EXTT24=
EXTT25=
EXTT26=
EXTT27=
PLAYORDER=
